<?xml version="1.0" encoding="UTF-8" standalone="no"?>
<!-- Created with Inkscape (http://www.inkscape.org/) -->

<svg
   xmlns:dc="http://purl.org/dc/elements/1.1/"
   xmlns:cc="http://creativecommons.org/ns#"
   xmlns:rdf="http://www.w3.org/1999/02/22-rdf-syntax-ns#"
   xmlns:svg="http://www.w3.org/2000/svg"
   xmlns="http://www.w3.org/2000/svg"
   xmlns:sodipodi="http://sodipodi.sourceforge.net/DTD/sodipodi-0.dtd"
   xmlns:inkscape="http://www.inkscape.org/namespaces/inkscape"
   width="585.15955"
   height="420.93948"
   id="svg2"
   version="1.1"
   inkscape:version="0.48.2 r9819"
   sodipodi:docname="serverlogo.svg"
   inkscape:export-filename="/home/ps/_science/kbs/dlvhex/website-release2x/images/serverlogo_whitebg.png"
   inkscape:export-xdpi="30.788273"
   inkscape:export-ydpi="30.788273">
  <defs
     id="defs4">
    <inkscape:perspective
       sodipodi:type="inkscape:persp3d"
       inkscape:vp_x="0 : 212.36261 : 1"
       inkscape:vp_y="0 : 1000 : 0"
       inkscape:vp_z="738.38702 : 212.36261 : 1"
       inkscape:persp3d-origin="369.19351 : 141.57507 : 1"
       id="perspective4918" />
    <marker
       inkscape:stockid="Arrow2Lend"
       orient="auto"
       refY="0"
       refX="0"
       id="Arrow2Lend"
       style="overflow:visible">
      <path
         id="path4058"
         style="font-size:12px;fill-rule:evenodd;stroke-width:0.625;stroke-linejoin:round"
         d="M 8.7185878,4.0337352 -2.2072895,0.01601326 8.7185884,-4.0017078 c -1.7454984,2.3720609 -1.7354408,5.6174519 -6e-7,8.035443 z"
         transform="matrix(-1.1,0,0,-1.1,-1.1,0)"
         inkscape:connector-curvature="0" />
    </marker>
    <marker
       inkscape:stockid="Arrow1Lend"
       orient="auto"
       refY="0"
       refX="0"
       id="Arrow1Lend"
       style="overflow:visible">
      <path
         id="path4040"
         d="M 0,0 5,-5 -12.5,0 5,5 0,0 z"
         style="fill-rule:evenodd;stroke:#000000;stroke-width:1pt;marker-start:none"
         transform="matrix(-0.8,0,0,-0.8,-10,0)"
         inkscape:connector-curvature="0" />
    </marker>
    <marker
       inkscape:stockid="Arrow2Lend"
       orient="auto"
       refY="0"
       refX="0"
       id="Arrow2Lend-7"
       style="overflow:visible">
      <path
         inkscape:connector-curvature="0"
         id="path4058-7"
         style="font-size:12px;fill-rule:evenodd;stroke-width:0.625;stroke-linejoin:round"
         d="M 8.7185878,4.0337352 -2.2072895,0.01601326 8.7185884,-4.0017078 c -1.7454984,2.3720609 -1.7354408,5.6174519 -6e-7,8.035443 z"
         transform="matrix(-1.1,0,0,-1.1,-1.1,0)" />
    </marker>
    <marker
       inkscape:stockid="Arrow2Lend"
       orient="auto"
       refY="0"
       refX="0"
       id="Arrow2Lend-5"
       style="overflow:visible">
      <path
         inkscape:connector-curvature="0"
         id="path4058-8"
         style="font-size:12px;fill-rule:evenodd;stroke-width:0.625;stroke-linejoin:round"
         d="M 8.7185878,4.0337352 -2.2072895,0.01601326 8.7185884,-4.0017078 c -1.7454984,2.3720609 -1.7354408,5.6174519 -6e-7,8.035443 z"
         transform="matrix(-1.1,0,0,-1.1,-1.1,0)" />
    </marker>
    <marker
       inkscape:stockid="Arrow2Lend"
       orient="auto"
       refY="0"
       refX="0"
       id="Arrow2Lend-9"
       style="overflow:visible">
      <path
         inkscape:connector-curvature="0"
         id="path4058-0"
         style="font-size:12px;fill-rule:evenodd;stroke-width:0.625;stroke-linejoin:round"
         d="M 8.7185878,4.0337352 -2.2072895,0.01601326 8.7185884,-4.0017078 c -1.7454984,2.3720609 -1.7354408,5.6174519 -6e-7,8.035443 z"
         transform="matrix(-1.1,0,0,-1.1,-1.1,0)" />
    </marker>
  </defs>
  <sodipodi:namedview
     id="base"
     pagecolor="#ffffff"
     bordercolor="#666666"
     borderopacity="1.0"
     inkscape:pageopacity="0.0"
     inkscape:pageshadow="2"
     inkscape:zoom="0.5"
     inkscape:cx="597.64324"
     inkscape:cy="185.55062"
     inkscape:document-units="px"
     inkscape:current-layer="layer1"
     showgrid="false"
     inkscape:window-width="1280"
     inkscape:window-height="717"
     inkscape:window-x="0"
     inkscape:window-y="30"
     inkscape:window-maximized="1"
     fit-margin-top="0"
     fit-margin-left="0"
     fit-margin-right="0"
     fit-margin-bottom="0" />
  <metadata
     id="metadata7">
    <rdf:RDF>
      <cc:Work
         rdf:about="">
        <dc:format>image/svg+xml</dc:format>
        <dc:type
           rdf:resource="http://purl.org/dc/dcmitype/StillImage" />
        <dc:title></dc:title>
      </cc:Work>
    </rdf:RDF>
  </metadata>
  <g
     inkscape:label="Layer 1"
     inkscape:groupmode="layer"
     id="layer1"
     transform="translate(-127.7167,-528.79465)">
    <rect
       style="fill:#ffffff;fill-opacity:1;stroke:none;stroke-width:4;stroke-linecap:round;stroke-linejoin:round;stroke-miterlimit:4;stroke-opacity:1;stroke-dasharray:none"
       id="rect5039"
       width="715"
       height="487"
       x="-27"
       y="-26.060516"
       transform="translate(127.7167,528.79465)" />
    <g
       id="g5026">
      <rect
         y="582.82007"
         x="129.17203"
         height="288.84326"
         width="582.2489"
         id="rect3988"
         style="fill:#0000bf;fill-opacity:1;stroke:#000000;stroke-width:2.91065574;stroke-miterlimit:4;stroke-opacity:1;stroke-dasharray:none" />
      <rect
         y="741.71875"
         x="186.95123"
         height="100.79214"
         width="466.69049"
         id="rect4030"
         style="fill:#bfbfbf;fill-opacity:1;stroke:#000000;stroke-width:4.43406248;stroke-miterlimit:4;stroke-opacity:1;stroke-dasharray:none" />
      <g
         transform="translate(-9.6925697,2)"
         id="g4024">
        <rect
           style="fill:#bfbfbf;fill-opacity:1;stroke:#000000;stroke-width:2.8654542;stroke-miterlimit:4;stroke-opacity:1;stroke-dasharray:none"
           id="rect3990"
           width="97.134544"
           height="97.134544"
           x="172.16624"
           y="789.51166" />
        <rect
           style="fill:#bfbfbf;fill-opacity:1;stroke:#000000;stroke-width:2.8654542;stroke-miterlimit:4;stroke-opacity:1;stroke-dasharray:none"
           id="rect3990-9"
           width="97.134544"
           height="97.134544"
           x="311.66992"
           y="789.94867" />
        <rect
           style="fill:#bfbfbf;fill-opacity:1;stroke:#000000;stroke-width:2.8654542;stroke-miterlimit:4;stroke-opacity:1;stroke-dasharray:none"
           id="rect3990-6"
           width="97.134544"
           height="97.134544"
           x="451.17361"
           y="790.94867" />
        <rect
           style="fill:#bfbfbf;fill-opacity:1;stroke:#000000;stroke-width:2.8654542;stroke-miterlimit:4;stroke-opacity:1;stroke-dasharray:none"
           id="rect3990-8"
           width="97.134544"
           height="97.134544"
           x="590.67731"
           y="791.11517" />
      </g>
      <path
         inkscape:connector-curvature="0"
         id="path4032"
         d="m 167.4707,947.52789 42.88054,-53.9104"
         style="fill:none;stroke:#000000;stroke-width:4;stroke-linecap:round;stroke-linejoin:round;stroke-miterlimit:4;stroke-opacity:1;stroke-dasharray:none;marker-end:url(#Arrow2Lend)" />
      <path
         inkscape:connector-curvature="0"
         id="path4032-8"
         d="M 682.94768,947.52789 631.80465,893.61752"
         style="fill:none;stroke:#000000;stroke-width:3.99999976;stroke-linecap:round;stroke-linejoin:round;stroke-miterlimit:4;stroke-opacity:1;stroke-dasharray:none;marker-end:url(#Arrow2Lend)" />
      <path
         inkscape:connector-curvature="0"
         id="path4032-8-6"
         d="M 514.4674,947.73414 491.34224,893.82375"
         style="fill:none;stroke:#000000;stroke-width:4;stroke-linecap:round;stroke-linejoin:round;stroke-miterlimit:4;stroke-opacity:1;stroke-dasharray:none;marker-end:url(#Arrow2Lend)" />
      <path
         inkscape:connector-curvature="0"
         id="path4032-8-6-2"
         d="m 328.2969,947.73414 23.12516,-53.91037"
         style="fill:none;stroke:#000000;stroke-width:4;stroke-linecap:round;stroke-linejoin:round;stroke-miterlimit:4;stroke-opacity:1;stroke-dasharray:none;marker-end:url(#Arrow2Lend)" />
    </g>
    <g
       id="g4987"
       transform="translate(-3.3989812,0)">
      <g
         transform="translate(330.79631,-252.79043)"
         id="g3944">
        <g
           id="g3926"
           style="fill:#ffffff;fill-opacity:1"
           transform="translate(-47.156793,-22.258666)">
          <path
             inkscape:connector-curvature="0"
             id="path3909-9"
             d="m -11.1875,805.84375 c 0,7.42708 0,14.85417 0,22.28125 -13.077931,-8.84599 -33.210215,-2.54036 -38.34375,12.59375 -7.39075,16.27357 -3.181536,39.90057 14.21875,47.6875 7.814694,3.36682 17.381929,2.23881 24.34375,-2.125 3.7495953,5.77541 11.61814205,0.82596 17,2.96875 5.263285,1.79288 9.757296,-3.31642 8.90625,-8.40625 -0.659285,-25.64814 -0.09182,-51.33634 -0.28125,-77 -8.6145833,0 -17.2291667,0 -25.84375,0 l 0,1 0,1 z m -8,39.125 c 7.443644,-0.44498 8.814283,9.3659 7.90625,14.90625 1.5614058,6.76424 -7.969927,13.12622 -12.75,7.375 -3.551428,-6.37276 -4.166747,-16.56536 1.8125,-21.5625 0.981694,-0.53096 1.898758,-0.66478 3.03125,-0.71875 z"
             style="font-size:85.03115082px;font-style:normal;font-variant:normal;font-weight:bold;font-stretch:normal;text-align:start;line-height:125%;letter-spacing:0px;word-spacing:0px;writing-mode:lr-tb;text-anchor:start;fill:#ffffff;fill-opacity:1;stroke:none;font-family:Sans;-inkscape-font-specification:Sans Bold" />
          <path
             inkscape:connector-curvature="0"
             id="path3911-8"
             d="m 23.78125,805.84375 c 0,27.6875 0,55.375 0,83.0625 8.572917,0 17.145833,0 25.71875,0 0,-28.35417 0,-56.70833 0,-85.0625 -8.572917,0 -17.145833,0 -25.71875,0 l 0,1 0,1 z"
             style="font-size:85.03115082px;font-style:normal;font-variant:normal;font-weight:bold;font-stretch:normal;text-align:start;line-height:125%;letter-spacing:0px;word-spacing:0px;writing-mode:lr-tb;text-anchor:start;fill:#ffffff;fill-opacity:1;stroke:none;font-family:Sans;-inkscape-font-specification:Sans Bold" />
          <path
             inkscape:connector-curvature="0"
             id="path3913-1"
             d="m 50.84375,828.15625 c 7.938576,20.25366 15.902462,40.49741 23.84375,60.75 8.322917,0 16.645833,0 24.96875,0 8.33421,-21.15179 16.67695,-42.30027 24.96875,-63.46875 -8.82292,0 -17.64583,0 -26.46875,0 -3.650167,10.16885 -7.313534,20.33296 -10.96875,30.5 -3.665097,-10.16723 -7.342069,-20.3302 -11,-30.5 -8.802083,0 -17.604167,0 -26.40625,0 0.354167,0.90625 0.708333,1.8125 1.0625,2.71875 z"
             style="font-size:85.03115082px;font-style:normal;font-variant:normal;font-weight:bold;font-stretch:normal;text-align:start;line-height:125%;letter-spacing:0px;word-spacing:0px;writing-mode:lr-tb;text-anchor:start;fill:#ffffff;fill-opacity:1;stroke:none;font-family:Sans;-inkscape-font-specification:Sans Bold" />
          <path
             inkscape:connector-curvature="0"
             id="path3915-3"
             d="m 124.78125,805.84375 c 0,27.6875 0,55.375 0,83.0625 8.55208,0 17.10417,0 25.65625,0 1.31167,-13.33443 -2.20312,-27.51397 1.90625,-40.28125 2.16346,-4.04938 10.69232,-4.63385 9.9375,1.28125 1.18048,12.97421 -0.0654,26.00489 0.5,39 8.625,0 17.25,0 25.875,0 -1.34906,-17.16804 2.44112,-34.97331 -2.375,-51.71875 -5.63101,-13.64357 -24.3336,-16.92034 -35.75,-8.75 0,-8.19792 0,-16.39583 0,-24.59375 -8.58333,0 -17.16667,0 -25.75,0 l 0,1 0,1 z"
             style="font-size:85.03115082px;font-style:normal;font-variant:normal;font-weight:bold;font-stretch:normal;text-align:start;line-height:125%;letter-spacing:0px;word-spacing:0px;writing-mode:lr-tb;text-anchor:start;fill:#ffffff;fill-opacity:1;stroke:none;font-family:Sans;-inkscape-font-specification:Sans Bold" />
          <path
             inkscape:connector-curvature="0"
             id="path3917-3"
             d="m 225.84375,824.125 c -16.12184,-0.62295 -31.89147,11.95731 -32.78125,28.4375 -2.0923,14.96897 5.93787,32.01119 21.40625,35.71875 14.32531,4.37896 29.70771,1.31696 43.34375,-3.96875 0.41897,-5.8727 -0.84191,-13.42525 0.625,-18.25 3.52542,-0.1197 1.73956,-6.05452 2.1875,-9 0.10423,-13.42988 -7.66598,-27.35755 -21.125,-31.21875 -4.37788,-1.40248 -9.02394,-1.93618 -13.65625,-1.71875 z m 1.0625,19.75 c 2.5404,-0.34042 5.14765,0.91381 6.40625,3.15625 -3.77343,-0.26985 -9.65035,0.89172 -12.3125,-0.28125 1.35014,-1.7847 3.64401,-2.8369 5.90625,-2.875 z m 21.53125,22.1875 c -8.12431,3.69849 -19.51207,7.459 -27.40625,1.3125 -0.90111,-3.17723 9.08138,-0.3586 12.1875,-1.3125 5.07292,0 10.14583,0 15.21875,0 z"
             style="font-size:85.03115082px;font-style:normal;font-variant:normal;font-weight:bold;font-stretch:normal;text-align:start;line-height:125%;letter-spacing:0px;word-spacing:0px;writing-mode:lr-tb;text-anchor:start;fill:#ffffff;fill-opacity:1;stroke:none;font-family:Sans;-inkscape-font-specification:Sans Bold" />
          <path
             inkscape:connector-curvature="0"
             id="path3919-3"
             d="m 258.25,828.625 c 6.90654,9.2864 13.76822,18.60611 20.65625,27.90625 -8.0046,10.78826 -15.9843,21.595 -24,32.375 9.58333,0 19.16667,0 28.75,0 3.42987,-4.88346 6.85363,-9.77121 10.28125,-14.65625 3.47708,4.8795 6.94741,9.76382 10.40625,14.65625 9.59375,0 19.1875,0 28.78125,0 -7.9799,-10.85363 -15.95823,-21.70841 -23.9375,-32.5625 7.63125,-10.3129 15.27448,-20.61693 22.9375,-30.90625 -9.59375,0 -19.1875,0 -28.78125,0 -3.32632,3.60303 -6.66193,11.79133 -9.97256,12.61331 -3.44785,-3.80971 -5.47305,-10.32494 -9.71494,-12.61331 -9.26042,0 -18.52083,0 -27.78125,0 0.79167,1.0625 1.58333,2.125 2.375,3.1875 z"
             style="font-size:85.03115082px;font-style:normal;font-variant:normal;font-weight:bold;font-stretch:normal;text-align:start;line-height:125%;letter-spacing:0px;word-spacing:0px;writing-mode:lr-tb;text-anchor:start;fill:#ffffff;fill-opacity:1;stroke:none;font-family:Sans;-inkscape-font-specification:Sans Bold" />
        </g>
        <g
           id="g3934"
           transform="translate(-2,124)">
          <path
             inkscape:connector-curvature="0"
             id="path3909"
             d="m -52.431204,691.31788 0,-29.70978 17.82587,0 0,77.04736 -17.82587,0 0,-8.02164 c -2.442849,3.26809 -5.133231,5.66138 -8.071158,7.17987 -2.938003,1.5185 -6.338119,2.27774 -10.200359,2.27775 -6.833271,-1e-5 -12.445113,-2.70689 -16.835543,-8.12068 -4.390452,-5.44677 -6.585673,-12.44507 -6.585669,-20.9949 -4e-6,-8.54979 2.195217,-15.53158 6.585669,-20.9454 4.39043,-5.44675 10.002272,-8.17014 16.835543,-8.1702 3.829229,6e-5 7.21284,0.77582 10.150842,2.32727 2.970938,1.51855 5.677826,3.89534 8.120675,7.13035 m -11.685848,35.89932 c 3.796211,0 6.684659,-1.38645 8.665352,-4.15937 2.013619,-2.7729 3.02045,-6.80022 3.020496,-12.08197 -4.6e-5,-5.28171 -1.006877,-9.30904 -3.020496,-12.08199 -1.980693,-2.77286 -4.869141,-4.15932 -8.665352,-4.15937 -3.76327,5e-5 -6.651719,1.38651 -8.665354,4.15937 -1.980676,2.77295 -2.971001,6.80028 -2.970978,12.08199 -2.3e-5,5.28175 0.990302,9.30907 2.970978,12.08197 2.013635,2.77292 4.902084,4.15937 8.665354,4.15937"
             style="font-size:85.03115082px;font-style:normal;font-variant:normal;font-weight:bold;font-stretch:normal;text-align:start;line-height:125%;letter-spacing:0px;word-spacing:0px;writing-mode:lr-tb;text-anchor:start;fill:#004000;fill-opacity:1;stroke:none;font-family:Sans;-inkscape-font-specification:Sans Bold" />
          <path
             inkscape:connector-curvature="0"
             id="path3911"
             d="m -17.472696,661.6081 17.7268378,0 0,77.04736 -17.7268378,0 0,-77.04736"
             style="font-size:85.03115082px;font-style:normal;font-variant:normal;font-weight:bold;font-stretch:normal;text-align:start;line-height:125%;letter-spacing:0px;word-spacing:0px;writing-mode:lr-tb;text-anchor:start;fill:#004000;fill-opacity:1;stroke:none;font-family:Sans;-inkscape-font-specification:Sans Bold" />
          <path
             inkscape:connector-curvature="0"
             id="path3913"
             d="m 10.404984,683.1972 17.726838,0 13.815048,38.32563 13.765538,-38.32563 17.77635,0 -21.83669,55.45826 -19.45991,0 -21.787174,-55.45826"
             style="font-size:85.03115082px;font-style:normal;font-variant:normal;font-weight:bold;font-stretch:normal;text-align:start;line-height:125%;letter-spacing:0px;word-spacing:0px;writing-mode:lr-tb;text-anchor:start;fill:#004000;fill-opacity:1;stroke:none;font-family:Sans;-inkscape-font-specification:Sans Bold" />
          <path
             inkscape:connector-curvature="0"
             id="path3915"
             d="m 139.29593,704.88534 0,33.77012 -17.82586,0 0,-5.4963 0,-20.25217 c -5e-5,-4.85257 -0.11557,-8.18666 -0.34662,-10.0023 -0.19811,-1.81556 -0.56124,-3.15249 -1.08936,-4.01082 -0.69327,-1.15533 -1.63409,-2.04663 -2.82243,-2.67388 -1.18843,-0.66017 -2.54188,-0.99028 -4.06034,-0.99032 -3.69725,4e-5 -6.6022,1.43602 -8.71487,4.30792 -2.11272,2.83897 -3.16907,6.78377 -3.16904,11.83439 l 0,27.28348 -17.726843,0 0,-77.04736 17.726843,0 0,29.70978 c 2.67385,-3.23501 5.51278,-5.6118 8.5168,-7.13035 3.00396,-1.55145 6.32155,-2.32721 9.95279,-2.32727 6.40405,6e-5 11.25664,1.96421 14.55779,5.89245 3.33404,3.92834 5.00107,9.63921 5.00114,17.13263"
             style="font-size:85.03115082px;font-style:normal;font-variant:normal;font-weight:bold;font-stretch:normal;text-align:start;line-height:125%;letter-spacing:0px;word-spacing:0px;writing-mode:lr-tb;text-anchor:start;fill:#004000;fill-opacity:1;stroke:none;font-family:Sans;-inkscape-font-specification:Sans Bold" />
          <path
             inkscape:connector-curvature="0"
             id="path3917"
             d="m 211.1936,710.77779 0,5.05066 -41.44515,0 c 0.42912,4.15939 1.93111,7.27891 4.50599,9.35858 2.57482,2.07969 6.173,3.11953 10.79456,3.11953 3.73017,0 7.54293,-0.54468 11.43826,-1.63403 3.92824,-1.12236 7.95556,-2.80592 12.08198,-5.05067 l 0,13.6665 c -4.19245,1.58452 -8.38482,2.77291 -12.57715,3.56517 -4.19242,0.82527 -8.38479,1.2379 -12.57713,1.23791 -10.03534,-1e-5 -17.8424,-2.54184 -23.42122,-7.62551 -5.54583,-5.11668 -8.31874,-12.28002 -8.31874,-21.49007 0,-9.04495 2.7234,-16.15879 8.1702,-21.34153 5.47978,-5.18266 13.00625,-7.77401 22.57942,-7.77407 8.71483,6e-5 15.68012,2.62442 20.89589,7.87309 5.24867,5.24878 7.87303,12.26359 7.87309,21.04444 m -18.22201,-5.89245 c -3e-5,-3.36707 -0.99035,-6.07395 -2.97097,-8.12067 -1.94768,-2.07964 -4.50602,-3.11948 -7.67503,-3.11953 -3.43316,5e-5 -6.22258,0.97386 -8.36826,2.92146 -2.14572,1.91468 -3.48266,4.68759 -4.01081,8.31874 l 23.02507,0"
             style="font-size:85.03115082px;font-style:normal;font-variant:normal;font-weight:bold;font-stretch:normal;text-align:start;line-height:125%;letter-spacing:0px;word-spacing:0px;writing-mode:lr-tb;text-anchor:start;fill:#004000;fill-opacity:1;stroke:none;font-family:Sans;-inkscape-font-specification:Sans Bold" />
          <path
             inkscape:connector-curvature="0"
             id="path3919"
             d="m 238.57613,710.28263 -20.0046,-27.08543 18.76669,0 11.33923,16.43942 11.48778,-16.43942 18.76669,0 -20.0046,26.98639 20.99492,28.47187 -18.76669,0 -12.4781,-17.52877 -12.32956,17.52877 -18.76668,0 20.99492,-28.37283"
             style="font-size:85.03115082px;font-style:normal;font-variant:normal;font-weight:bold;font-stretch:normal;text-align:start;line-height:125%;letter-spacing:0px;word-spacing:0px;writing-mode:lr-tb;text-anchor:start;fill:#004000;fill-opacity:1;stroke:none;font-family:Sans;-inkscape-font-specification:Sans Bold" />
        </g>
      </g>
      <g
         transform="translate(-85.714286,-26.28571)"
         id="g3857">
        <path
           style="font-size:72px;font-style:normal;font-variant:normal;font-weight:bold;font-stretch:normal;text-align:start;line-height:125%;letter-spacing:0px;word-spacing:0px;writing-mode:lr-tb;text-anchor:start;fill:#ffffff;fill-opacity:1;stroke:none;font-family:Sans;-inkscape-font-specification:Sans Bold"
           d="m 314.59375,659.3125 c -12.84049,0.0915 -26.45226,9.16521 -27.40625,22.71875 -1.86672,11.54441 4.97241,23.8896 16.375,27.1875 7.35471,3.29787 17.06049,1.94016 23.125,7.5 0.42865,5.51889 -7.15414,5.31159 -10.96875,4.96875 -10.14845,-0.63785 -19.28371,-5.19354 -28,-10.125 0,8.48958 0,16.97917 0,25.46875 17.38527,6.41329 38.67016,10.60918 55.4375,0.5625 14.22758,-10.35715 13.55552,-37.13143 -3.78125,-44.125 -8.51493,-4.17455 -19.06305,-3.32678 -27.03125,-8.0625 -0.70527,-4.52235 5.64211,-4.44379 8.59375,-4.40625 9.62244,-0.18289 18.60761,3.61311 27.25,7.5625 0,-8.26042 0,-16.52083 0,-24.78125 -10.96738,-2.98147 -22.18455,-4.93971 -33.59375,-4.46875 z"
           id="path3815"
           inkscape:connector-curvature="0" />
        <path
           style="font-size:72px;font-style:normal;font-variant:normal;font-weight:bold;font-stretch:normal;text-align:start;line-height:125%;letter-spacing:0px;word-spacing:0px;writing-mode:lr-tb;text-anchor:start;fill:#ffffff;fill-opacity:1;stroke:none;font-family:Sans;-inkscape-font-specification:Sans Bold"
           d="m 361.6875,662.59375 c 0,26.47917 0,52.95833 0,79.4375 20.07292,0 40.14583,0 60.21875,0 0,-7.4375 0,-14.875 0,-22.3125 -10.93059,-0.23608 -22.80093,0.4676 -33.15625,-0.34375 0.51646,-2.51644 -1.84076,-7.7099 1.0625,-8.9375 9.5879,1.10123 19.41313,0.15533 29.09375,0.46875 0,-7.4375 0,-14.875 0,-22.3125 -10.12131,-0.17012 -20.84131,0.33796 -30.59375,-0.25 -1.08836,-3.33033 1.1942,-7.2155 5,-5.84375 8.94192,0.98493 18.38075,0.11314 27.5,0.40625 0,-7.4375 0,-14.875 0,-22.3125 -19.70833,0 -39.41667,0 -59.125,0 l 0,1 0,1 z"
           id="path3817"
           inkscape:connector-curvature="0" />
        <path
           style="font-size:72px;font-style:normal;font-variant:normal;font-weight:bold;font-stretch:normal;text-align:start;line-height:125%;letter-spacing:0px;word-spacing:0px;writing-mode:lr-tb;text-anchor:start;fill:#ffffff;fill-opacity:1;stroke:none;font-family:Sans;-inkscape-font-specification:Sans Bold"
           d="m 453.75,660.46875 c -7.71473,0.20219 -15.44961,0.61194 -23.15625,0 0,27.1875 0,54.375 0,81.5625 8.97917,0 17.95833,0 26.9375,0 0.21054,-9.23661 -0.41961,-19.23715 0.3125,-28 6.78126,-0.6395 10.31558,6.05935 12.28125,11.4375 2.73355,5.50419 5.33785,11.02549 8.09375,16.5625 9.80208,0 19.60417,0 29.40625,0 -7.65761,-12.30779 -11.84317,-27.70697 -21.1875,-38.25 14.72841,-9.79864 11.30142,-37.12675 -6.6875,-41.0625 -8.44869,-2.3384 -17.28231,-2.4508 -26,-2.25 z m 3.96875,21.75 c 3.75217,0.31013 10.20984,-1.07099 11,4.15625 1.32552,4.75306 -3.53883,7.8598 -7.75,6.84375 -2.82329,1.69889 -4.42371,-1.03833 -3.59375,-3.6875 0.23378,-2.33359 0.15646,-5.23532 0.34375,-7.3125 z"
           id="path3819"
           inkscape:connector-curvature="0" />
        <path
           style="font-size:72px;font-style:normal;font-variant:normal;font-weight:bold;font-stretch:normal;text-align:start;line-height:125%;letter-spacing:0px;word-spacing:0px;writing-mode:lr-tb;text-anchor:start;fill:#ffffff;fill-opacity:1;stroke:none;font-family:Sans;-inkscape-font-specification:Sans Bold"
           d="m 498.625,663.28125 c 9.72607,26.2434 19.45969,52.48428 29.125,78.75 9.40625,0 18.8125,0 28.21875,0 10.00739,-27.15833 20.06129,-54.29986 30.125,-81.4375 -9.19792,0 -18.39583,0 -27.59375,0 -5.53901,15.4697 -11.08378,30.93734 -16.625,46.40625 -5.55138,-15.469 -11.10842,-30.93598 -16.65625,-46.40625 -9.19792,0 -18.39583,0 -27.59375,0 0.33333,0.89583 0.66667,1.79167 1,2.6875 z"
           id="path3821"
           inkscape:connector-curvature="0" />
        <path
           style="font-size:72px;font-style:normal;font-variant:normal;font-weight:bold;font-stretch:normal;text-align:start;line-height:125%;letter-spacing:0px;word-spacing:0px;writing-mode:lr-tb;text-anchor:start;fill:#ffffff;fill-opacity:1;stroke:none;font-family:Sans;-inkscape-font-specification:Sans Bold"
           d="m 586.0625,662.59375 c 0,26.47917 0,52.95833 0,79.4375 20.0625,0 40.125,0 60.1875,0 0,-7.4375 0,-14.875 0,-22.3125 -10.93059,-0.23608 -22.80093,0.4676 -33.15625,-0.34375 0.45261,-2.60773 -1.68937,-7.34407 0.90625,-8.9375 9.6421,1.08474 19.51576,0.16731 29.25,0.46875 0,-7.4375 0,-14.875 0,-22.3125 -10.12131,-0.17012 -20.84131,0.33796 -30.59375,-0.25 -1.08748,-3.33364 1.19489,-7.21342 5,-5.84375 8.94192,0.98493 18.38075,0.11314 27.5,0.40625 0,-7.4375 0,-14.875 0,-22.3125 -19.69792,0 -39.39583,0 -59.09375,0 l 0,1 0,1 z"
           id="path3823"
           inkscape:connector-curvature="0" />
        <path
           style="font-size:72px;font-style:normal;font-variant:normal;font-weight:bold;font-stretch:normal;text-align:start;line-height:125%;letter-spacing:0px;word-spacing:0px;writing-mode:lr-tb;text-anchor:start;fill:#ffffff;fill-opacity:1;stroke:none;font-family:Sans;-inkscape-font-specification:Sans Bold"
           d="m 678.09375,660.46875 c -7.71473,0.20219 -15.44961,0.61194 -23.15625,0 0,27.1875 0,54.375 0,81.5625 8.97917,0 17.95833,0 26.9375,0 0.18947,-9.24708 -0.37763,-19.17538 0.28125,-28 6.8498,-0.64915 10.3207,6.05106 12.3125,11.4375 2.73355,5.50419 5.33785,11.02549 8.09375,16.5625 9.79167,0 19.58333,0 29.375,0 -7.85373,-12.29735 -11.12017,-27.35694 -21.40625,-38.0625 14.95541,-9.63427 11.73561,-37.3325 -6.4375,-41.25 -8.44869,-2.3384 -17.28231,-2.4508 -26,-2.25 z m 9.21875,21.71875 c 4.92085,-0.582 7.38345,5.18705 5,8.875 -2.37552,2.86317 -6.88474,2.39561 -10.0625,2.3125 -1.25275,-3.38258 -0.1577,-8.01587 -0.0937,-11.15625 1.73784,0.37518 3.4352,0.19093 5.15625,-0.0312 z"
           id="path3825"
           inkscape:connector-curvature="0" />
        <flowRoot
           xml:space="preserve"
           id="flowRoot3064"
           style="font-size:72px;font-style:normal;font-variant:normal;font-weight:bold;font-stretch:normal;text-align:start;line-height:125%;letter-spacing:0px;word-spacing:0px;writing-mode:lr-tb;text-anchor:start;fill:#004000;fill-opacity:1;stroke:none;font-family:Sans;-inkscape-font-specification:Sans Bold"
           transform="matrix(1.3994424,0,0,1.3994424,-7.9336857,-52.467467)"><flowRegion
             id="flowRegion3066"><rect
               id="rect3068"
               width="488.57144"
               height="108.57143"
               x="208.57143"
               y="493.29666"
               style="font-size:72px;font-style:normal;font-variant:normal;font-weight:bold;font-stretch:normal;text-align:start;line-height:125%;writing-mode:lr-tb;text-anchor:start;fill:#004000;fill-opacity:1;font-family:Sans;-inkscape-font-specification:Sans Bold" /></flowRegion><flowPara
             id="flowPara3070">SERVER</flowPara></flowRoot>      </g>
    </g>
  </g>
</svg>
